<svg width="19" height="24" viewBox="0 0 19 24" fill="none" xmlns="http://www.w3.org/2000/svg">
<path d="M13.3866 15.3625L4.19981 13.134L4.64556 11.2964L13.8323 13.5248L13.3866 15.3625Z" fill="white"/>
<path d="M14.0024 13.1643L5.58466 8.86226L6.44484 7.17822L14.8626 11.4805L14.0024 13.1643Z" fill="white"/>
<path d="M15.299 10.8867L8.18015 4.66597L9.42387 3.24219L16.5429 9.46248L15.299 10.8865" fill="white"/>
<path d="M17.2574 8.88483L11.9484 1.06218L13.5131 0L18.8218 7.82307L17.2576 8.88504" fill="white"/>
<path d="M13.2396 17.661L3.80048 17.1455L3.9035 15.2573L13.3426 15.7728L13.2396 17.661Z" fill="white"/>
<path d="M15.1966 22.1088V14.2749H17.0856L17.0868 23.9999H0L0.000423109 14.2668H1.89109V22.1088H15.1966Z" fill="white"/>
<path d="M3.77411 18.3342H13.2915V20.2252H3.77411V18.3344V18.3342Z" fill="white"/>
</svg>
