<svg width="26" height="26" viewBox="0 0 26 26" fill="none" xmlns="http://www.w3.org/2000/svg">
<path fill-rule="evenodd" clip-rule="evenodd" d="M9.50693 0C8.07358 0.00106014 6.91356 1.1651 6.91461 2.59947C6.91356 4.03384 8.07464 5.19788 9.50799 5.19894H12.1014V2.60053C12.1024 1.16616 10.9413 0.00212029 9.50693 0C9.50799 0 9.50799 0 9.50693 0V0ZM9.50693 6.93333H2.59338C1.16003 6.93439 -0.00105649 8.09843 2.89517e-06 9.5328C-0.00211588 10.9672 1.15897 12.1312 2.59232 12.1333H9.50693C10.9403 12.1323 12.1014 10.9682 12.1003 9.53386C12.1014 8.09843 10.9403 6.93439 9.50693 6.93333Z" fill="white"/>
<path fill-rule="evenodd" clip-rule="evenodd" d="M25.9298 9.5328C25.9308 8.09843 24.7698 6.93439 23.3364 6.93333C21.903 6.93439 20.742 8.09843 20.743 9.5328V12.1333H23.3364C24.7698 12.1323 25.9308 10.9682 25.9298 9.5328ZM19.0151 9.5328V2.59947C19.0162 1.16616 17.8562 0.00212029 16.4228 0C14.9895 0.00106014 13.8284 1.1651 13.8294 2.59947V9.5328C13.8273 10.9672 14.9884 12.1312 16.4218 12.1333C17.8551 12.1323 19.0162 10.9682 19.0151 9.5328Z" fill="white"/>
<path fill-rule="evenodd" clip-rule="evenodd" d="M16.4219 26.0001C17.8553 25.9991 19.0164 24.835 19.0153 23.4006C19.0164 21.9663 17.8553 20.8022 16.4219 20.8012H13.8285V23.4006C13.8275 24.834 14.9886 25.998 16.4219 26.0001ZM16.4219 19.0657H23.3365C24.7699 19.0647 25.931 17.9006 25.9299 16.4663C25.9321 15.0319 24.771 13.8678 23.3376 13.8657H16.423C14.9896 13.8668 13.8285 15.0308 13.8296 16.4652C13.8285 17.9006 14.9886 19.0647 16.4219 19.0657Z" fill="white"/>
<path fill-rule="evenodd" clip-rule="evenodd" d="M0.000206718 16.4662C-0.000852669 17.9005 1.16023 19.0646 2.59358 19.0656C4.02693 19.0646 5.18802 17.9005 5.18696 16.4662V13.8667H2.59358C1.16023 13.8678 -0.000852669 15.0318 0.000206718 16.4662ZM6.91482 16.4662V23.3995C6.9127 24.8339 8.07379 25.9979 9.50714 26C10.9405 25.999 12.1016 24.8349 12.1005 23.4006V16.4683C12.1026 15.0339 10.9416 13.8699 9.5082 13.8678C8.07379 13.8678 6.91376 15.0318 6.91482 16.4662C6.91482 16.4662 6.91482 16.4672 6.91482 16.4662Z" fill="white"/>
</svg>
