<svg width="24" height="20" viewBox="0 0 24 20" fill="none" xmlns="http://www.w3.org/2000/svg">
<path d="M0.36252 9.17015C2.81779 7.82877 5.55853 6.70925 8.11934 5.584C12.5249 3.74094 16.948 1.92982 21.4157 0.243681C22.2849 -0.04362 23.8469 -0.324497 24 0.953167C23.9162 2.76169 23.5712 4.55962 23.3345 6.35755C22.734 10.3114 22.0397 14.2516 21.3629 18.1924C21.1296 19.505 19.4717 20.1846 18.4109 19.3446C15.8615 17.6366 13.2924 15.9452 10.7755 14.1976C9.95099 13.3666 10.7157 12.1735 11.4518 11.5802C13.5516 9.52758 15.7785 7.78398 17.7685 5.62549C18.3053 4.33967 16.7193 5.42325 16.1961 5.75534C13.3215 7.7201 10.5172 9.80481 7.48644 11.5316C5.93833 12.3768 4.13399 11.6545 2.58658 11.1828C1.19915 10.6131 -0.83396 10.039 0.362345 9.17032L0.36252 9.17015Z" fill="white"/>
</svg>
