<svg width="32" height="32" viewBox="0 0 32 32" fill="none" xmlns="http://www.w3.org/2000/svg">
<path d="M0 4C0 1.79086 1.79086 0 4 0H28C30.2091 0 32 1.79086 32 4V28C32 30.2091 30.2091 32 28 32H4C1.79086 32 0 30.2091 0 28V4Z" fill="#A277FF"/>
<path fill-rule="evenodd" clip-rule="evenodd" d="M20.377 9.18301L17.6313 10.8806C20.5128 13.13 21.2504 15.7396 21.6494 17.1512C21.6086 16.9277 23.3419 16.3998 25.1157 16.4164C26.8223 16.4324 28.5698 16.9757 28.6413 17.6244C28.7872 18.9474 24.7805 20.4301 24.7805 20.4301C24.7805 20.4301 25.9025 24.2427 24.5736 24.8975C24.0174 25.1715 22.9391 24.2677 22.118 23.1422C20.977 21.5782 20.3477 19.4786 20.3477 19.4786C20.1068 19.5467 19.8492 19.6324 19.5735 19.7242C17.8746 20.2899 15.4861 21.0851 12.0432 19.3956L11.3095 21.2983L9.13035 17.3951C7.80192 16.1998 6.65118 14.7585 6.0978 13.5449C5.24015 11.6639 4.92877 10.8549 5.4169 9.98216C5.90503 9.10939 6.74721 8.55069 9.08047 8.2119C10.0811 8.06661 11.2997 8.16898 12.5187 8.451C13.2541 8.22338 14.2304 7.94054 15.3624 7.90604C17.3051 7.84682 19.4073 8.64064 20.377 9.18301ZM8.90798 11.9347C9.38999 12.2043 9.99929 12.0321 10.2689 11.5501C10.5385 11.068 10.3663 10.4587 9.88424 10.1892C9.40222 9.91957 8.79293 10.0918 8.52334 10.5738C8.25375 11.0558 8.42596 11.6651 8.90798 11.9347Z" fill="white"/>
</svg>
